REM DIRINDEX 1\2,1\3,1\4,1\5
REM DIRNAME cjc005,folder01,folder02,folder03,folder04
TITLE ""
FILE "P1Q_t_1402-1411.mp3" MP3
  TRACK 01 AUDIO
    TITLE "3:cjc005_5113"
    INDEX 01 00:00:00
  TRACK 02 AUDIO
    TITLE "0:"
    INDEX 01 00:00:74
  TRACK 03 AUDIO
    TITLE "4:cjc005_5114"
    INDEX 01 00:01:34
  TRACK 04 AUDIO
    TITLE "0:"
    INDEX 01 00:02:65
  TRACK 05 AUDIO
    TITLE "5:cjc005_5115"
    INDEX 01 00:03:14
  TRACK 06 AUDIO
    TITLE "0:"
    INDEX 01 00:06:65
  TRACK 07 AUDIO
    TITLE "3:cjc005_5116"
    INDEX 01 00:07:41
  TRACK 08 AUDIO
    TITLE "0:"
    INDEX 01 00:08:44
  TRACK 09 AUDIO
    TITLE "4:cjc005_5117"
    INDEX 01 00:08:68
  TRACK 10 AUDIO
    TITLE "0:"
    INDEX 01 00:10:14
  TRACK 11 AUDIO
    TITLE "5:cjc005_5118"
    INDEX 01 00:10:41
  TRACK 12 AUDIO
    TITLE "0:"
    INDEX 01 00:13:49
  TRACK 13 AUDIO
    TITLE "3:cjc005_5119"
    INDEX 01 00:14:25
  TRACK 14 AUDIO
    TITLE "0:"
    INDEX 01 00:15:23
  TRACK 15 AUDIO
    TITLE "4:cjc005_5120"
    INDEX 01 00:15:52
  TRACK 16 AUDIO
    TITLE "0:"
    INDEX 01 00:16:65
  TRACK 17 AUDIO
    TITLE "5:cjc005_5121"
    INDEX 01 00:17:12
  TRACK 18 AUDIO
    TITLE "0:"
    INDEX 01 00:20:43
  TRACK 19 AUDIO
    TITLE "3:cjc005_5122"
    INDEX 01 00:21:19
  TRACK 20 AUDIO
    TITLE "0:"
    INDEX 01 00:22:23
  TRACK 21 AUDIO
    TITLE "4:cjc005_5123"
    INDEX 01 00:22:46
  TRACK 22 AUDIO
    TITLE "0:"
    INDEX 01 00:23:46
  TRACK 23 AUDIO
    TITLE "5:cjc005_5124"
    INDEX 01 00:24:00
  TRACK 24 AUDIO
    TITLE "0:"
    INDEX 01 00:26:50
  TRACK 25 AUDIO
    TITLE "3:cjc005_5125"
    INDEX 01 00:27:26
  TRACK 26 AUDIO
    TITLE "0:"
    INDEX 01 00:28:35
  TRACK 27 AUDIO
    TITLE "4:cjc005_5126"
    INDEX 01 00:28:64
  TRACK 28 AUDIO
    TITLE "0:"
    INDEX 01 00:30:08
  TRACK 29 AUDIO
    TITLE "5:cjc005_5127"
    INDEX 01 00:30:34
  TRACK 30 AUDIO
    TITLE "0:"
    INDEX 01 00:35:41
  TRACK 31 AUDIO
    TITLE "3:cjc005_5128"
    INDEX 01 00:36:17
  TRACK 32 AUDIO
    TITLE "0:"
    INDEX 01 00:37:26
  TRACK 33 AUDIO
    TITLE "4:cjc005_5129"
    INDEX 01 00:37:54
  TRACK 34 AUDIO
    TITLE "0:"
    INDEX 01 00:38:55
  TRACK 35 AUDIO
    TITLE "5:cjc005_5130"
    INDEX 01 00:39:05
  TRACK 36 AUDIO
    TITLE "0:"
    INDEX 01 00:43:40
  TRACK 37 AUDIO
    TITLE "3:cjc005_5131"
    INDEX 01 00:44:18
  TRACK 38 AUDIO
    TITLE "0:"
    INDEX 01 00:45:32
  TRACK 39 AUDIO
    TITLE "4:cjc005_5132"
    INDEX 01 00:45:51
  TRACK 40 AUDIO
    TITLE "0:"
    INDEX 01 00:46:74
  TRACK 41 AUDIO
    TITLE "5:cjc005_5133"
    INDEX 01 00:47:19
  TRACK 42 AUDIO
    TITLE "0:"
    INDEX 01 00:50:56
  TRACK 43 AUDIO
    TITLE "3:cjc005_5134"
    INDEX 01 00:51:32
  TRACK 44 AUDIO
    TITLE "0:"
    INDEX 01 00:52:47
  TRACK 45 AUDIO
    TITLE "4:cjc005_5135"
    INDEX 01 00:52:73
  TRACK 46 AUDIO
    TITLE "0:"
    INDEX 01 00:54:62
  TRACK 47 AUDIO
    TITLE "5:cjc005_5136"
    INDEX 01 00:55:08
  TRACK 48 AUDIO
    TITLE "0:"
    INDEX 01 00:58:56
  TRACK 49 AUDIO
    TITLE "3:cjc005_5137"
    INDEX 01 00:59:32
  TRACK 50 AUDIO
    TITLE "0:"
    INDEX 01 01:00:49
  TRACK 51 AUDIO
    TITLE "4:cjc005_5138"
    INDEX 01 01:00:74
  TRACK 52 AUDIO
    TITLE "0:"
    INDEX 01 01:02:50
  TRACK 53 AUDIO
    TITLE "5:cjc005_5139"
    INDEX 01 01:02:73
  TRACK 54 AUDIO
    TITLE "0:"
    INDEX 01 01:07:66
  TRACK 55 AUDIO
    TITLE "3:cjc005_5140"
    INDEX 01 01:08:42
  TRACK 56 AUDIO
    TITLE "0:"
    INDEX 01 01:09:71
  TRACK 57 AUDIO
    TITLE "4:cjc005_5141"
    INDEX 01 01:10:28
  TRACK 58 AUDIO
    TITLE "0:"
    INDEX 01 01:11:70
  TRACK 59 AUDIO
    TITLE "5:cjc005_5142"
    INDEX 01 01:12:21
  TRACK 60 AUDIO
    TITLE "0:"
    INDEX 01 01:17:45
